<mxfile host="app.diagrams.net" agent="Mozilla/5.0 (Windows NT 10.0; Win64; x64) AppleWebKit/537.36 (KHTML, like Gecko) Chrome/136.0.0.0 Safari/537.36 Edg/136.0.0.0" version="27.0.5">
  <diagram name="Page-1" id="-iiki6TfxmxsTEaQ9aJI">
    <mxGraphModel dx="3393" dy="2250" grid="1" gridSize="10" guides="1" tooltips="1" connect="1" arrows="1" fold="1" page="1" pageScale="1" pageWidth="850" pageHeight="1100" math="0" shadow="0">
      <root>
        <mxCell id="0" />
        <mxCell id="1" parent="0" />
        <mxCell id="zlmhA8bwgTMkaeCEbwk2-7" value="" style="edgeStyle=orthogonalEdgeStyle;rounded=0;orthogonalLoop=1;jettySize=auto;html=1;" edge="1" parent="1" source="zlmhA8bwgTMkaeCEbwk2-1" target="zlmhA8bwgTMkaeCEbwk2-6">
          <mxGeometry relative="1" as="geometry" />
        </mxCell>
        <mxCell id="zlmhA8bwgTMkaeCEbwk2-16" value="" style="edgeStyle=orthogonalEdgeStyle;rounded=0;orthogonalLoop=1;jettySize=auto;html=1;" edge="1" parent="1" source="zlmhA8bwgTMkaeCEbwk2-1" target="zlmhA8bwgTMkaeCEbwk2-15">
          <mxGeometry relative="1" as="geometry">
            <Array as="points">
              <mxPoint x="80" y="155" />
              <mxPoint x="130" y="155" />
            </Array>
          </mxGeometry>
        </mxCell>
        <mxCell id="zlmhA8bwgTMkaeCEbwk2-1" value="&lt;font style=&quot;font-size: 18px;&quot;&gt;CUSTUMER&lt;/font&gt;" style="rounded=0;whiteSpace=wrap;html=1;" vertex="1" parent="1">
          <mxGeometry x="-100" y="60" width="240" height="60" as="geometry" />
        </mxCell>
        <mxCell id="zlmhA8bwgTMkaeCEbwk2-6" value="&lt;font style=&quot;font-size: 14px;&quot;&gt;FullName&lt;/font&gt;" style="ellipse;whiteSpace=wrap;html=1;rounded=0;" vertex="1" parent="1">
          <mxGeometry x="-120" y="-160" width="240" height="150" as="geometry" />
        </mxCell>
        <mxCell id="zlmhA8bwgTMkaeCEbwk2-9" value="" style="endArrow=classic;html=1;rounded=0;exitX=0.75;exitY=0;exitDx=0;exitDy=0;entryX=0.313;entryY=0.909;entryDx=0;entryDy=0;entryPerimeter=0;" edge="1" parent="1" source="zlmhA8bwgTMkaeCEbwk2-1" target="zlmhA8bwgTMkaeCEbwk2-10">
          <mxGeometry width="50" height="50" relative="1" as="geometry">
            <mxPoint x="160" y="240" as="sourcePoint" />
            <mxPoint x="150" y="-10" as="targetPoint" />
          </mxGeometry>
        </mxCell>
        <mxCell id="zlmhA8bwgTMkaeCEbwk2-10" value="&lt;font style=&quot;font-size: 14px;&quot;&gt;Address&lt;/font&gt;" style="ellipse;whiteSpace=wrap;html=1;rounded=0;" vertex="1" parent="1">
          <mxGeometry x="130" y="-220" width="280" height="160" as="geometry" />
        </mxCell>
        <mxCell id="zlmhA8bwgTMkaeCEbwk2-11" value="" style="endArrow=classic;html=1;rounded=0;exitX=0.397;exitY=0.017;exitDx=0;exitDy=0;exitPerimeter=0;entryX=0.5;entryY=1;entryDx=0;entryDy=0;" edge="1" parent="1" source="zlmhA8bwgTMkaeCEbwk2-1" target="zlmhA8bwgTMkaeCEbwk2-12">
          <mxGeometry width="50" height="50" relative="1" as="geometry">
            <mxPoint x="110" y="80" as="sourcePoint" />
            <mxPoint x="30" y="10" as="targetPoint" />
            <Array as="points">
              <mxPoint x="-50" y="40" />
            </Array>
          </mxGeometry>
        </mxCell>
        <mxCell id="zlmhA8bwgTMkaeCEbwk2-12" value="&lt;font style=&quot;font-size: 14px;&quot;&gt;CustumerID&lt;/font&gt;" style="ellipse;whiteSpace=wrap;html=1;rounded=0;" vertex="1" parent="1">
          <mxGeometry x="-490" y="-90" width="360" height="80" as="geometry" />
        </mxCell>
        <mxCell id="zlmhA8bwgTMkaeCEbwk2-13" value="" style="endArrow=classic;html=1;rounded=0;" edge="1" parent="1">
          <mxGeometry width="50" height="50" relative="1" as="geometry">
            <mxPoint x="140" y="60" as="sourcePoint" />
            <mxPoint x="250" y="-20" as="targetPoint" />
          </mxGeometry>
        </mxCell>
        <mxCell id="zlmhA8bwgTMkaeCEbwk2-14" value="&lt;font style=&quot;font-size: 14px;&quot;&gt;PhoneNUmber&lt;/font&gt;" style="ellipse;whiteSpace=wrap;html=1;rounded=0;" vertex="1" parent="1">
          <mxGeometry x="230" y="-60" width="340" height="120" as="geometry" />
        </mxCell>
        <mxCell id="zlmhA8bwgTMkaeCEbwk2-18" value="" style="edgeStyle=orthogonalEdgeStyle;rounded=0;orthogonalLoop=1;jettySize=auto;html=1;" edge="1" parent="1" source="zlmhA8bwgTMkaeCEbwk2-15" target="zlmhA8bwgTMkaeCEbwk2-17">
          <mxGeometry relative="1" as="geometry" />
        </mxCell>
        <mxCell id="zlmhA8bwgTMkaeCEbwk2-15" value="&lt;font style=&quot;font-size: 14px;&quot;&gt;BOOKS&lt;/font&gt;" style="rhombus;whiteSpace=wrap;html=1;rounded=0;" vertex="1" parent="1">
          <mxGeometry x="50" y="230" width="160" height="80" as="geometry" />
        </mxCell>
        <mxCell id="zlmhA8bwgTMkaeCEbwk2-20" value="" style="edgeStyle=orthogonalEdgeStyle;rounded=0;orthogonalLoop=1;jettySize=auto;html=1;" edge="1" parent="1" source="zlmhA8bwgTMkaeCEbwk2-17">
          <mxGeometry relative="1" as="geometry">
            <mxPoint x="95" y="590" as="targetPoint" />
          </mxGeometry>
        </mxCell>
        <mxCell id="zlmhA8bwgTMkaeCEbwk2-33" value="" style="edgeStyle=orthogonalEdgeStyle;rounded=0;orthogonalLoop=1;jettySize=auto;html=1;" edge="1" parent="1" source="zlmhA8bwgTMkaeCEbwk2-17" target="zlmhA8bwgTMkaeCEbwk2-32">
          <mxGeometry relative="1" as="geometry" />
        </mxCell>
        <mxCell id="zlmhA8bwgTMkaeCEbwk2-43" value="" style="edgeStyle=orthogonalEdgeStyle;rounded=0;orthogonalLoop=1;jettySize=auto;html=1;" edge="1" parent="1" source="zlmhA8bwgTMkaeCEbwk2-17" target="zlmhA8bwgTMkaeCEbwk2-42">
          <mxGeometry relative="1" as="geometry" />
        </mxCell>
        <mxCell id="zlmhA8bwgTMkaeCEbwk2-17" value="&lt;font style=&quot;font-size: 18px;&quot;&gt;APPOINTMENT&lt;/font&gt;" style="whiteSpace=wrap;html=1;rounded=0;" vertex="1" parent="1">
          <mxGeometry x="20" y="360" width="180" height="60" as="geometry" />
        </mxCell>
        <mxCell id="zlmhA8bwgTMkaeCEbwk2-24" value="" style="edgeStyle=orthogonalEdgeStyle;rounded=0;orthogonalLoop=1;jettySize=auto;html=1;" edge="1" parent="1" source="zlmhA8bwgTMkaeCEbwk2-21" target="zlmhA8bwgTMkaeCEbwk2-23">
          <mxGeometry relative="1" as="geometry" />
        </mxCell>
        <mxCell id="zlmhA8bwgTMkaeCEbwk2-21" value="&lt;font style=&quot;font-size: 14px;&quot;&gt;AppointmentID&lt;/font&gt;" style="ellipse;whiteSpace=wrap;html=1;rounded=0;" vertex="1" parent="1">
          <mxGeometry x="-90" y="590" width="370" height="150" as="geometry" />
        </mxCell>
        <mxCell id="zlmhA8bwgTMkaeCEbwk2-26" value="" style="edgeStyle=orthogonalEdgeStyle;rounded=0;orthogonalLoop=1;jettySize=auto;html=1;" edge="1" parent="1" source="zlmhA8bwgTMkaeCEbwk2-23" target="zlmhA8bwgTMkaeCEbwk2-25">
          <mxGeometry relative="1" as="geometry" />
        </mxCell>
        <mxCell id="zlmhA8bwgTMkaeCEbwk2-28" value="" style="edgeStyle=orthogonalEdgeStyle;rounded=0;orthogonalLoop=1;jettySize=auto;html=1;" edge="1" parent="1" source="zlmhA8bwgTMkaeCEbwk2-23" target="zlmhA8bwgTMkaeCEbwk2-27">
          <mxGeometry relative="1" as="geometry" />
        </mxCell>
        <mxCell id="zlmhA8bwgTMkaeCEbwk2-30" value="" style="edgeStyle=orthogonalEdgeStyle;rounded=0;orthogonalLoop=1;jettySize=auto;html=1;" edge="1" parent="1" source="zlmhA8bwgTMkaeCEbwk2-23" target="zlmhA8bwgTMkaeCEbwk2-29">
          <mxGeometry relative="1" as="geometry" />
        </mxCell>
        <mxCell id="zlmhA8bwgTMkaeCEbwk2-23" value="&lt;font style=&quot;font-size: 14px;&quot;&gt;Includes&lt;/font&gt;" style="ellipse;whiteSpace=wrap;html=1;rounded=0;" vertex="1" parent="1">
          <mxGeometry x="-50" y="820" width="235" height="80" as="geometry" />
        </mxCell>
        <mxCell id="zlmhA8bwgTMkaeCEbwk2-25" value="&lt;font style=&quot;font-size: 14px;&quot;&gt;Date&lt;/font&gt;" style="ellipse;whiteSpace=wrap;html=1;rounded=0;" vertex="1" parent="1">
          <mxGeometry x="-470" y="800" width="320" height="80" as="geometry" />
        </mxCell>
        <mxCell id="zlmhA8bwgTMkaeCEbwk2-27" value="&lt;font style=&quot;font-size: 14px;&quot;&gt;Time&lt;/font&gt;" style="ellipse;whiteSpace=wrap;html=1;rounded=0;" vertex="1" parent="1">
          <mxGeometry x="-120" y="970" width="370" height="80" as="geometry" />
        </mxCell>
        <mxCell id="zlmhA8bwgTMkaeCEbwk2-29" value="&lt;font style=&quot;font-size: 14px;&quot;&gt;Status&lt;/font&gt;" style="ellipse;whiteSpace=wrap;html=1;rounded=0;" vertex="1" parent="1">
          <mxGeometry x="300" y="870" width="300" height="80" as="geometry" />
        </mxCell>
        <mxCell id="zlmhA8bwgTMkaeCEbwk2-35" value="" style="edgeStyle=orthogonalEdgeStyle;rounded=0;orthogonalLoop=1;jettySize=auto;html=1;" edge="1" parent="1" source="zlmhA8bwgTMkaeCEbwk2-32" target="zlmhA8bwgTMkaeCEbwk2-34">
          <mxGeometry relative="1" as="geometry" />
        </mxCell>
        <mxCell id="zlmhA8bwgTMkaeCEbwk2-37" value="" style="edgeStyle=orthogonalEdgeStyle;rounded=0;orthogonalLoop=1;jettySize=auto;html=1;" edge="1" parent="1" source="zlmhA8bwgTMkaeCEbwk2-32" target="zlmhA8bwgTMkaeCEbwk2-36">
          <mxGeometry relative="1" as="geometry" />
        </mxCell>
        <mxCell id="zlmhA8bwgTMkaeCEbwk2-39" value="" style="edgeStyle=orthogonalEdgeStyle;rounded=0;orthogonalLoop=1;jettySize=auto;html=1;" edge="1" parent="1" source="zlmhA8bwgTMkaeCEbwk2-32" target="zlmhA8bwgTMkaeCEbwk2-38">
          <mxGeometry relative="1" as="geometry" />
        </mxCell>
        <mxCell id="zlmhA8bwgTMkaeCEbwk2-32" value="&lt;font style=&quot;font-size: 18px;&quot;&gt;SERVICES&lt;/font&gt;" style="whiteSpace=wrap;html=1;rounded=0;" vertex="1" parent="1">
          <mxGeometry x="-240" y="360" width="180" height="60" as="geometry" />
        </mxCell>
        <mxCell id="zlmhA8bwgTMkaeCEbwk2-34" value="&lt;font style=&quot;font-size: 14px;&quot;&gt;Price&lt;/font&gt;" style="ellipse;whiteSpace=wrap;html=1;rounded=0;" vertex="1" parent="1">
          <mxGeometry x="-160" y="160" width="210" height="130" as="geometry" />
        </mxCell>
        <mxCell id="zlmhA8bwgTMkaeCEbwk2-36" value="&lt;font style=&quot;font-size: 14px;&quot;&gt;Description&lt;/font&gt;" style="ellipse;whiteSpace=wrap;html=1;rounded=0;" vertex="1" parent="1">
          <mxGeometry x="-470" y="490" width="390" height="140" as="geometry" />
        </mxCell>
        <mxCell id="zlmhA8bwgTMkaeCEbwk2-38" value="&lt;font style=&quot;font-size: 14px;&quot;&gt;ServiceName&lt;/font&gt;" style="ellipse;whiteSpace=wrap;html=1;rounded=0;" vertex="1" parent="1">
          <mxGeometry x="-570" y="350" width="200" height="80" as="geometry" />
        </mxCell>
        <mxCell id="zlmhA8bwgTMkaeCEbwk2-40" value="" style="edgeStyle=orthogonalEdgeStyle;rounded=0;orthogonalLoop=1;jettySize=auto;html=1;" edge="1" parent="1">
          <mxGeometry relative="1" as="geometry">
            <mxPoint x="-200" y="270" as="sourcePoint" />
            <mxPoint x="-230" y="220" as="targetPoint" />
            <Array as="points">
              <mxPoint x="-200" y="360" />
              <mxPoint x="-200" y="360" />
            </Array>
          </mxGeometry>
        </mxCell>
        <mxCell id="zlmhA8bwgTMkaeCEbwk2-41" value="&lt;font style=&quot;font-size: 14px;&quot;&gt;ServiceID&lt;/font&gt;" style="ellipse;whiteSpace=wrap;html=1;rounded=0;" vertex="1" parent="1">
          <mxGeometry x="-480" y="170" width="260" height="90" as="geometry" />
        </mxCell>
        <mxCell id="zlmhA8bwgTMkaeCEbwk2-45" value="" style="edgeStyle=orthogonalEdgeStyle;rounded=0;orthogonalLoop=1;jettySize=auto;html=1;" edge="1" parent="1" source="zlmhA8bwgTMkaeCEbwk2-42" target="zlmhA8bwgTMkaeCEbwk2-44">
          <mxGeometry relative="1" as="geometry" />
        </mxCell>
        <mxCell id="zlmhA8bwgTMkaeCEbwk2-42" value="&lt;font style=&quot;font-size: 14px;&quot;&gt;Assigned TO&lt;/font&gt;" style="rhombus;whiteSpace=wrap;html=1;rounded=0;" vertex="1" parent="1">
          <mxGeometry x="240" y="350" width="80" height="80" as="geometry" />
        </mxCell>
        <mxCell id="zlmhA8bwgTMkaeCEbwk2-47" value="" style="edgeStyle=orthogonalEdgeStyle;rounded=0;orthogonalLoop=1;jettySize=auto;html=1;" edge="1" parent="1" source="zlmhA8bwgTMkaeCEbwk2-44" target="zlmhA8bwgTMkaeCEbwk2-46">
          <mxGeometry relative="1" as="geometry" />
        </mxCell>
        <mxCell id="zlmhA8bwgTMkaeCEbwk2-49" value="" style="edgeStyle=orthogonalEdgeStyle;rounded=0;orthogonalLoop=1;jettySize=auto;html=1;" edge="1" parent="1" source="zlmhA8bwgTMkaeCEbwk2-44" target="zlmhA8bwgTMkaeCEbwk2-48">
          <mxGeometry relative="1" as="geometry" />
        </mxCell>
        <mxCell id="zlmhA8bwgTMkaeCEbwk2-51" value="" style="edgeStyle=orthogonalEdgeStyle;rounded=0;orthogonalLoop=1;jettySize=auto;html=1;" edge="1" parent="1" source="zlmhA8bwgTMkaeCEbwk2-44" target="zlmhA8bwgTMkaeCEbwk2-50">
          <mxGeometry relative="1" as="geometry" />
        </mxCell>
        <mxCell id="zlmhA8bwgTMkaeCEbwk2-61" value="" style="edgeStyle=orthogonalEdgeStyle;rounded=0;orthogonalLoop=1;jettySize=auto;html=1;" edge="1" parent="1" source="zlmhA8bwgTMkaeCEbwk2-44" target="zlmhA8bwgTMkaeCEbwk2-50">
          <mxGeometry relative="1" as="geometry" />
        </mxCell>
        <mxCell id="zlmhA8bwgTMkaeCEbwk2-62" value="" style="edgeStyle=orthogonalEdgeStyle;rounded=0;orthogonalLoop=1;jettySize=auto;html=1;" edge="1" parent="1" source="zlmhA8bwgTMkaeCEbwk2-44" target="zlmhA8bwgTMkaeCEbwk2-50">
          <mxGeometry relative="1" as="geometry" />
        </mxCell>
        <mxCell id="zlmhA8bwgTMkaeCEbwk2-63" value="" style="edgeStyle=orthogonalEdgeStyle;rounded=0;orthogonalLoop=1;jettySize=auto;html=1;" edge="1" parent="1" source="zlmhA8bwgTMkaeCEbwk2-44" target="zlmhA8bwgTMkaeCEbwk2-50">
          <mxGeometry relative="1" as="geometry" />
        </mxCell>
        <mxCell id="zlmhA8bwgTMkaeCEbwk2-44" value="&lt;font style=&quot;font-size: 18px;&quot;&gt;EMPLOYEES&lt;/font&gt;" style="whiteSpace=wrap;html=1;rounded=0;" vertex="1" parent="1">
          <mxGeometry x="380" y="360" width="190" height="60" as="geometry" />
        </mxCell>
        <mxCell id="zlmhA8bwgTMkaeCEbwk2-46" value="&lt;font style=&quot;font-size: 14px;&quot;&gt;PhoneNUmber&lt;/font&gt;" style="ellipse;whiteSpace=wrap;html=1;rounded=0;" vertex="1" parent="1">
          <mxGeometry x="680" y="340" width="220" height="80" as="geometry" />
        </mxCell>
        <mxCell id="zlmhA8bwgTMkaeCEbwk2-48" value="&lt;font style=&quot;font-size: 14px;&quot;&gt;EmployeeID&lt;/font&gt;" style="ellipse;whiteSpace=wrap;html=1;rounded=0;" vertex="1" parent="1">
          <mxGeometry x="310" y="210" width="310" height="80" as="geometry" />
        </mxCell>
        <mxCell id="zlmhA8bwgTMkaeCEbwk2-50" value="&lt;font style=&quot;font-size: 14px;&quot;&gt;EmailAddress&lt;/font&gt;" style="ellipse;whiteSpace=wrap;html=1;rounded=0;" vertex="1" parent="1">
          <mxGeometry x="210" y="480" width="260" height="120" as="geometry" />
        </mxCell>
        <mxCell id="zlmhA8bwgTMkaeCEbwk2-53" value="" style="edgeStyle=orthogonalEdgeStyle;rounded=0;orthogonalLoop=1;jettySize=auto;html=1;exitX=1;exitY=0.75;exitDx=0;exitDy=0;" edge="1" parent="1" source="zlmhA8bwgTMkaeCEbwk2-44">
          <mxGeometry relative="1" as="geometry">
            <mxPoint x="520" y="410" as="sourcePoint" />
            <mxPoint x="600" y="480" as="targetPoint" />
          </mxGeometry>
        </mxCell>
        <mxCell id="zlmhA8bwgTMkaeCEbwk2-55" value="&lt;font style=&quot;font-size: 14px;&quot;&gt;Role&lt;/font&gt;" style="ellipse;whiteSpace=wrap;html=1;rounded=0;" vertex="1" parent="1">
          <mxGeometry x="540" y="450" width="300" height="120" as="geometry" />
        </mxCell>
        <mxCell id="zlmhA8bwgTMkaeCEbwk2-58" value="" style="edgeStyle=orthogonalEdgeStyle;rounded=0;orthogonalLoop=1;jettySize=auto;html=1;" edge="1" parent="1">
          <mxGeometry relative="1" as="geometry">
            <mxPoint x="570" y="410" as="sourcePoint" />
            <mxPoint x="660" y="270" as="targetPoint" />
            <Array as="points">
              <mxPoint x="610" y="411" />
              <mxPoint x="610" y="270" />
            </Array>
          </mxGeometry>
        </mxCell>
        <mxCell id="zlmhA8bwgTMkaeCEbwk2-59" value="&lt;font style=&quot;font-size: 14px;&quot;&gt;FullName&lt;/font&gt;" style="ellipse;whiteSpace=wrap;html=1;rounded=0;" vertex="1" parent="1">
          <mxGeometry x="650" y="230" width="220" height="80" as="geometry" />
        </mxCell>
        <mxCell id="zlmhA8bwgTMkaeCEbwk2-64" value="" style="edgeStyle=orthogonalEdgeStyle;rounded=0;orthogonalLoop=1;jettySize=auto;html=1;" edge="1" parent="1">
          <mxGeometry relative="1" as="geometry">
            <mxPoint x="470" y="420" as="sourcePoint" />
            <mxPoint x="510" y="650" as="targetPoint" />
            <Array as="points">
              <mxPoint x="505" y="421" />
              <mxPoint x="505" y="480" />
            </Array>
          </mxGeometry>
        </mxCell>
        <mxCell id="zlmhA8bwgTMkaeCEbwk2-67" value="" style="edgeStyle=orthogonalEdgeStyle;rounded=0;orthogonalLoop=1;jettySize=auto;html=1;" edge="1" parent="1" source="zlmhA8bwgTMkaeCEbwk2-65" target="zlmhA8bwgTMkaeCEbwk2-66">
          <mxGeometry relative="1" as="geometry" />
        </mxCell>
        <mxCell id="zlmhA8bwgTMkaeCEbwk2-69" value="" style="edgeStyle=orthogonalEdgeStyle;rounded=0;orthogonalLoop=1;jettySize=auto;html=1;" edge="1" parent="1" source="zlmhA8bwgTMkaeCEbwk2-65" target="zlmhA8bwgTMkaeCEbwk2-68">
          <mxGeometry relative="1" as="geometry" />
        </mxCell>
        <mxCell id="zlmhA8bwgTMkaeCEbwk2-71" value="" style="edgeStyle=orthogonalEdgeStyle;rounded=0;orthogonalLoop=1;jettySize=auto;html=1;" edge="1" parent="1" source="zlmhA8bwgTMkaeCEbwk2-65" target="zlmhA8bwgTMkaeCEbwk2-70">
          <mxGeometry relative="1" as="geometry">
            <Array as="points">
              <mxPoint x="320" y="690" />
            </Array>
          </mxGeometry>
        </mxCell>
        <mxCell id="zlmhA8bwgTMkaeCEbwk2-73" value="" style="edgeStyle=orthogonalEdgeStyle;rounded=0;orthogonalLoop=1;jettySize=auto;html=1;" edge="1" parent="1" source="zlmhA8bwgTMkaeCEbwk2-65" target="zlmhA8bwgTMkaeCEbwk2-72">
          <mxGeometry relative="1" as="geometry">
            <Array as="points">
              <mxPoint x="920" y="680" />
            </Array>
          </mxGeometry>
        </mxCell>
        <mxCell id="zlmhA8bwgTMkaeCEbwk2-65" value="&lt;font style=&quot;font-size: 18px;&quot;&gt;PAYMENTS&lt;/font&gt;" style="whiteSpace=wrap;html=1;rounded=0;" vertex="1" parent="1">
          <mxGeometry x="440" y="630" width="290" height="60" as="geometry" />
        </mxCell>
        <mxCell id="zlmhA8bwgTMkaeCEbwk2-66" value="&lt;font style=&quot;font-size: 14px;&quot;&gt;PaymentMethod&lt;/font&gt;" style="ellipse;whiteSpace=wrap;html=1;rounded=0;" vertex="1" parent="1">
          <mxGeometry x="935" y="625" width="205" height="115" as="geometry" />
        </mxCell>
        <mxCell id="zlmhA8bwgTMkaeCEbwk2-68" value="&lt;font style=&quot;font-size: 14px;&quot;&gt;Time&lt;/font&gt;" style="ellipse;whiteSpace=wrap;html=1;rounded=0;" vertex="1" parent="1">
          <mxGeometry x="510" y="760" width="300" height="85" as="geometry" />
        </mxCell>
        <mxCell id="zlmhA8bwgTMkaeCEbwk2-70" value="&lt;font style=&quot;font-size: 14px;&quot;&gt;Date&lt;/font&gt;" style="ellipse;whiteSpace=wrap;html=1;rounded=0;" vertex="1" parent="1">
          <mxGeometry x="170" y="740" width="300" height="80" as="geometry" />
        </mxCell>
        <mxCell id="zlmhA8bwgTMkaeCEbwk2-72" value="&lt;font style=&quot;font-size: 14px;&quot;&gt;Status&lt;/font&gt;" style="ellipse;whiteSpace=wrap;html=1;rounded=0;" vertex="1" parent="1">
          <mxGeometry x="800" y="800" width="320" height="140" as="geometry" />
        </mxCell>
      </root>
    </mxGraphModel>
  </diagram>
</mxfile>
